<?xml version="1.0" standalone="no"?>
<!DOCTYPE svg PUBLIC "-//W3C//DTD SVG 1.1//EN" "http://www.w3.org/Graphics/SVG/1.1/DTD/svg11.dtd" >
<svg xmlns="http://www.w3.org/2000/svg">
<metadata>
This is a custom SVG webfont generated by Font Squirrel.
Copyright   : Copyright  1991 1992 1995 2002 Adobe Systems Incorporated  All Rights Reserved  1981 2002 Heidelberger Druckmaschinen AG All rights reserved
Designer    : Peter Matthias Noordzij
Foundry URL : httpwwwadobecomtype
</metadata>
<defs>
<font id="CaeciliaLTStd86HeavyItalic" horiz-adv-x="606" >
<font-face units-per-em="2048" ascent="1575" descent="-473" />
<missing-glyph horiz-adv-x="500" />
<glyph unicode=" " />
<glyph unicode="!" d="M72 135q0 84 51 130t137 46q82 0 129 -42t47 -115q0 -84 -51 -129t-139 -45q-80 0 -127 40.5t-47 114.5zM154 459l61 1116h320l-111 -1116h-270z" />
<glyph unicode="&#x22;" horiz-adv-x="1099" d="M227 1444q0 72 33 117t102.5 45t102.5 -45t33 -117q0 -84 -13 -227l-24 -273q-12 -129 -98.5 -129t-98.5 129l-24 273q-13 143 -13 227zM602 1444q0 72 33 117t102.5 45t102 -45t32.5 -117q0 -84 -12 -227l-24 -273q-12 -129 -98.5 -129t-98.5 129l-25 273 q-12 143 -12 227z" />
<glyph unicode="#" horiz-adv-x="1212" d="M76 416l24 176h201l33 250h-199l25 176h198l56 416h184l-55 -416h209l55 416h184l-55 -416h201l-25 -176h-201l-32 -250h198l-24 -176h-199l-55 -416h-185l56 416h-209l-58 -416h-184l57 416h-200zM483 592h209l35 250h-209z" />
<glyph unicode="$" horiz-adv-x="1212" d="M45 37l25 385h221v-195q68 -23 178 -28l37 434q-211 47 -310.5 143t-99.5 250q0 188 131 307t346 135l21 246h209l-21 -246q164 -12 346 -67l-24 -373h-221v189q-55 25 -119 30l-29 -381q254 -72 343 -169t89 -253q0 -205 -143 -337t-373 -142l-20 -272h-209l20 272 q-272 15 -397 72zM391 1077q0 -109 137 -153l25 323q-162 -31 -162 -170zM676 199q102 16 149 75.5t47 128.5q0 131 -165 179z" />
<glyph unicode="%" horiz-adv-x="1669" d="M63 -35l1401 1620l142 -117l-1401 -1620zM137 1096q0 168 99.5 270t257.5 102q125 0 216 -77.5t91 -233.5q0 -168 -99.5 -270.5t-257.5 -102.5q-125 0 -216 78t-91 234zM346 1100q0 -139 111 -139q53 0 94 52t41 140q0 139 -111 139q-53 0 -94 -52t-41 -140zM868 276 q0 168 99.5 270.5t257.5 102.5q125 0 216 -77.5t91 -233.5q0 -168 -99.5 -270.5t-256.5 -102.5q-125 0 -216.5 77.5t-91.5 233.5zM1077 281q0 -139 111 -140q53 0 94 52.5t41 140.5q0 139 -111 139q-53 0 -94 -52t-41 -140z" />
<glyph unicode="&#x26;" horiz-adv-x="1593" d="M106 385q0 213 218 356l110 74q-168 160 -168 320q0 141 121 237t303 96q164 0 263.5 -79.5t99.5 -210.5q0 -217 -301 -375l342 -367q70 82 84 254h-117l18 209h467l-18 -209h-129q-33 -283 -160 -405q74 -76 166 -76h88l-18 -209h-168q-70 0 -113 23.5t-115 97.5 q-180 -156 -446 -156q-264 0 -395.5 117t-131.5 303zM377 426q0 -119 84 -185.5t217 -66.5q150 0 254 94l-377 406q-86 -43 -132 -109.5t-46 -138.5zM512 1137q0 -90 119 -205q201 109 200 221q0 55 -43 87t-114 32q-74 0 -118 -39t-44 -96z" />
<glyph unicode="'" d="M168 1444q0 72 32.5 117t102.5 45t102.5 -45t32.5 -117q0 -84 -12 -227l-25 -273q-12 -129 -98 -129t-98 129l-25 273q-12 143 -12 227z" />
<glyph unicode="(" horiz-adv-x="681" d="M106 410q0 668 502 1218l189 -145q-383 -492 -383 -1098q0 -483 221 -834l-201 -118q-328 496 -328 977z" />
<glyph unicode=")" horiz-adv-x="681" d="M-145 -422q383 492 383 1098q0 483 -222 833l201 119q328 -496 328 -977q0 -668 -502 -1218z" />
<glyph unicode="*" horiz-adv-x="757" d="M78 1161l272 88v4l-250 90l99 152l190 -178l-29 258h177l-66 -254l4 -4l197 178l90 -152l-268 -90v-4l243 -88l-96 -155l-186 186l-4 -4l30 -266h-176l76 266l-4 4l-217 -186z" />
<glyph unicode="+" horiz-adv-x="1228" d="M96 408v221h408v407h221v-407h408v-221h-408v-408h-221v408h-408z" />
<glyph unicode="," d="M-39 -299q213 100 213 223q0 45 -45 118t-45 122q0 72 50 118t122 46q90 0 151.5 -69t61.5 -198q0 -334 -418 -524z" />
<glyph unicode="-" horiz-adv-x="833" d="M127 494l23 233h557l-23 -233h-557z" />
<glyph unicode="." d="M86 135q0 84 51 130t137 46q82 0 129.5 -42t47.5 -115q0 -84 -51.5 -129t-139.5 -45q-80 0 -127 40.5t-47 114.5z" />
<glyph unicode="/" horiz-adv-x="757" d="M-180 -92l925 1698l193 -80l-926 -1698z" />
<glyph unicode="0" horiz-adv-x="1212" d="M47 594q0 385 164 629.5t465 244.5q104 0 187 -27.5t153.5 -95t109.5 -194.5t39 -311q0 -385 -163.5 -630t-464.5 -245q-104 0 -187.5 27.5t-154 95.5t-109.5 195t-39 311zM330 629q0 -442 233 -443q141 0 230.5 159t89.5 460q0 252 -64.5 347t-171.5 95 q-139 0 -228 -158.5t-89 -459.5z" />
<glyph unicode="1" horiz-adv-x="1212" d="M145 1133l482 301h258l-105 -1225h287l-20 -209h-820l21 209h262l84 989l-4 4q-25 -35 -113 -90l-225 -141z" />
<glyph unicode="2" horiz-adv-x="1212" d="M33 0l18 197q131 88 260 191.5t254 223t202 238.5t77 209q0 86 -53.5 137t-141.5 51q-92 0 -159.5 -53t-79.5 -152h-271q33 201 177.5 313.5t357.5 112.5q190 0 315 -100t125 -295q0 -207 -199.5 -435t-529.5 -425l4 -4q94 12 275 12h407l-18 -221h-1020z" />
<glyph unicode="3" horiz-adv-x="1212" d="M45 61l18 236q180 -111 422 -111q160 0 245 65.5t85 164.5q0 123 -107.5 166t-332.5 43l18 209q217 0 333 73.5t116 182.5q0 158 -183 157q-197 0 -249 -182h-258q18 182 173.5 292.5t350.5 110.5q197 0 316.5 -94t119.5 -260q0 -133 -107.5 -235.5t-281.5 -124.5v-4 q186 -8 280.5 -97.5t94.5 -236.5q0 -176 -152.5 -313.5t-443.5 -137.5q-246 0 -457 96z" />
<glyph unicode="4" horiz-adv-x="1212" d="M20 397l19 217l639 820h352l-69 -828h231l-18 -209h-232l-16 -188h145l-18 -209h-537l19 209h120l17 188h-652zM279 600q61 6 135 6h276l49 582h-4z" />
<glyph unicode="5" horiz-adv-x="1212" d="M88 33l18 227q164 -74 343 -74q154 0 249 74t95 201q0 90 -54.5 145.5t-191.5 86t-375 30.5l68 711h827l-18 -222h-572l-26 -280q340 -25 482 -134.5t142 -312.5q0 -236 -170 -378t-434 -142q-186 0 -383 68z" />
<glyph unicode="6" horiz-adv-x="1212" d="M88 561q0 254 89 457t275.5 326.5t444.5 123.5q123 0 293 -34l-35 -222q-131 35 -237 35q-451 0 -547 -495h4q98 152 338 151q180 0 300 -118.5t120 -313.5q0 -221 -147.5 -363.5t-381.5 -142.5q-240 0 -378 162t-138 434zM371 526q0 -158 69.5 -242.5t190.5 -84.5 q106 0 168.5 76.5t62.5 168.5q0 111 -60.5 174.5t-170.5 63.5q-133 0 -260 -100v-56z" />
<glyph unicode="7" horiz-adv-x="1212" d="M106 0q113 141 185 260l426 723q102 176 149 229h-686l19 222h987l-19 -177l-618 -1054q-53 -94 -148 -203h-295z" />
<glyph unicode="8" horiz-adv-x="1212" d="M49 324q0 137 98.5 246.5t280.5 177.5q-260 113 -260 331q0 178 138 283.5t351 105.5q221 0 342 -104t121 -246q0 -236 -305 -358q182 -100 251 -181t69 -198q0 -178 -143.5 -297t-416.5 -119q-242 0 -384 99.5t-142 259.5zM332 362q0 -88 71.5 -132t190.5 -44 q121 0 189.5 53.5t68.5 137.5q0 78 -63.5 140.5t-186.5 119.5q-154 -72 -212 -133.5t-58 -141.5zM438 1087q0 -57 50.5 -108t154.5 -111q231 111 232 234q0 68 -60.5 113t-157.5 45q-100 0 -159.5 -49.5t-59.5 -123.5z" />
<glyph unicode="9" horiz-adv-x="1212" d="M23 0l34 221q131 -35 238 -35q451 0 547 496h-4q-98 -152 -338 -152q-180 0 -300 119t-120 314q0 221 147.5 363t380.5 142q240 0 378 -161.5t138 -434.5q0 -254 -89 -456.5t-275.5 -326.5t-444.5 -124q-122 0 -292 35zM350 989q0 -111 60.5 -174t171.5 -63 q133 0 260 100v55q0 158 -70 243t-190 85q-106 0 -169 -77t-63 -169z" />
<glyph unicode=":" d="M86 135q0 84 51 130t137 46q82 0 129.5 -42t47.5 -115q0 -84 -51.5 -129t-139.5 -45q-80 0 -127 40.5t-47 114.5zM156 932q0 84 51 130t137 46q82 0 129 -42t47 -116q0 -84 -51 -129t-139 -45q-80 0 -127 41t-47 115z" />
<glyph unicode=";" d="M-39 -299q213 100 213 223q0 45 -45 118t-45 122q0 72 50 118t122 46q90 0 151.5 -69t61.5 -198q0 -334 -418 -524zM156 932q0 84 51 130t137 46q82 0 129 -42t47 -116q0 -84 -51 -129t-139 -45q-80 0 -127 41t-47 115z" />
<glyph unicode="&#x3c;" horiz-adv-x="1228" d="M96 420v196l1037 437v-222l-791 -313l791 -313v-221z" />
<glyph unicode="=" horiz-adv-x="1228" d="M96 211v221h1037v-221h-1037zM96 604v221h1037v-221h-1037z" />
<glyph unicode="&#x3e;" horiz-adv-x="1228" d="M96 -16v221l791 313l-791 313v222l1037 -437v-196z" />
<glyph unicode="?" horiz-adv-x="985" d="M86 135q0 84 51 130t137 46q82 0 129.5 -42t47.5 -115q0 -84 -51.5 -129t-139.5 -45q-80 0 -127 40.5t-47 114.5zM121 606q0 76 37 132.5t123 107.5l233 135q156 90 156 211q0 82 -74 131t-217 49q-113 0 -242 -45l19 234q184 45 321 45q221 0 360.5 -98.5t139.5 -288.5 q0 -115 -59.5 -204t-143.5 -142.5t-168 -96.5t-143.5 -91t-59.5 -101q0 -45 35 -88l-252 -76q-65 94 -65 186z" />
<glyph unicode="@" horiz-adv-x="1638" d="M68 719q0 322 219 535.5t565 213.5q309 0 514 -173t205 -445q0 -143 -52.5 -260t-133 -183.5t-165.5 -101.5t-163 -35q-139 0 -144 121h-6q-100 -121 -248 -121q-119 0 -199.5 91.5t-80.5 236.5q0 217 137 382t313 165q152 0 236 -158l33 119h151l-141 -508 q-33 -117 -33 -139q0 -37 68 -37q96 0 174 118.5t78 284.5q0 215 -156 347.5t-387 132.5q-270 0 -439 -172t-169 -422q0 -264 170 -423t422 -159q324 0 499 176h176q-86 -154 -261 -247t-414 -93q-332 0 -550 204t-218 550zM555 625q0 -94 46 -148.5t138 -54.5 q100 0 181 128t81 249q0 195 -163 194q-119 0 -201 -117.5t-82 -250.5z" />
<glyph unicode="A" horiz-adv-x="1478" d="M-41 0l18 209h95l581 1237h332l358 -1237h107l-18 -209h-512l18 209h98l-71 287h-488l-123 -287h135l-18 -209h-512zM565 705h348l-100 409q-18 70 -25 135h-4q-8 -53 -45 -137z" />
<glyph unicode="B" horiz-adv-x="1251" d="M39 0l18 209h107l88 1016h-135l18 209h570q440 0 440 -349q0 -143 -92 -239t-258 -105v-4q180 0 277 -77.5t97 -231.5q0 -184 -133 -306t-362 -122h-635zM446 209h181q123 0 185 61.5t62 166t-63 153.5t-207 49h-121zM502 848h131q115 0 178 54t63 153q0 170 -198 170 h-141z" />
<glyph unicode="C" horiz-adv-x="1290" d="M70 647q0 373 206.5 597t589.5 224q195 0 416 -55l-25 -360h-221v174q-82 20 -174 20q-252 0 -368.5 -164.5t-116.5 -418.5t114.5 -359.5t317.5 -105.5q72 0 158 24l32 183h222l-33 -369q-238 -72 -426.5 -72t-326.5 55.5t-216 153.5t-113.5 216t-35.5 257z" />
<glyph unicode="D" horiz-adv-x="1517" d="M39 0l18 209h107l88 1016h-135l18 209h621q342 0 519 -160t177 -459q0 -367 -208 -591t-568 -224h-637zM446 209h224q160 0 273.5 84t163.5 213t50 287q0 432 -432 432h-190z" />
<glyph unicode="E" horiz-adv-x="1214" d="M39 0l18 209h107l88 1016h-135l18 209h1026l-24 -406h-222v197h-380l-33 -377h387l-19 -209h-387l-37 -430h398l24 197h234l-37 -406h-1026z" />
<glyph unicode="F" horiz-adv-x="1138" d="M39 0l18 209h107l88 1016h-135l18 209h1010l-25 -406h-221v197h-364l-37 -398h401l-18 -221h-402l-33 -397h136l-19 -209h-524z" />
<glyph unicode="G" horiz-adv-x="1402" d="M53 647q0 373 207 597t590 224q264 0 446 -55l-24 -360h-221v174q-94 20 -193 20q-262 0 -380 -163.5t-118 -419.5q0 -254 115 -359.5t318 -105.5q115 0 184 22l27 266h-138l19 209h499l-18 -209h-111l-43 -442q-229 -80 -467 -80q-188 0 -326 55.5t-216 153.5t-114 216 t-36 257z" />
<glyph unicode="H" horiz-adv-x="1554" d="M39 0l18 209h107l88 1016h-135l18 209h524l-18 -209h-106l-37 -398h577l33 398h-135l18 209h525l-19 -209h-106l-88 -1016h135l-19 -209h-524l18 209h107l37 397h-578l-33 -397h136l-19 -209h-524z" />
<glyph unicode="I" horiz-adv-x="681" d="M31 0l18 209h107l88 1016h-135l18 209h524l-18 -209h-107l-88 -1016h135l-18 -209h-524z" />
<glyph unicode="J" horiz-adv-x="720" d="M-182 -174q106 59 179 121.5t117 124t70.5 153.5t37.5 178t22 230l39 592h-136l19 209h524l-18 -209h-107l-71 -858q-18 -213 -132 -397.5t-321 -286.5l-109 -54z" />
<glyph unicode="K" horiz-adv-x="1441" d="M39 0l18 209h107l88 1016h-135l18 209h524l-18 -209h-106l-39 -445l503 445h-139l19 209h559l-19 -209h-98l-528 -473l481 -543h119l-19 -209h-588l19 209h106l-424 479l-41 -479h136l-19 -209h-524z" />
<glyph unicode="L" horiz-adv-x="1138" d="M61 0l19 209h106l88 1016h-135l19 209h524l-18 -209h-107l-88 -1016h346l29 197h233l-33 -406h-983z" />
<glyph unicode="M" horiz-adv-x="1972" d="M31 0l18 209h107l100 1016h-147l18 209h522l273 -967q31 -104 32 -166h4q18 86 72 201l424 932h488l-19 -209h-129l-57 -1016h127l-19 -209h-516l19 209h106l78 905h-4q-8 -39 -29 -86l-446 -1028h-295l-264 995q-20 80 -25 119h-4l-76 -905h135l-18 -209h-475z" />
<glyph unicode="N" horiz-adv-x="1593" d="M31 0l18 209h107l88 1016h-135l18 209h358l611 -893q20 -33 41 -78h4l63 762h-135l18 209h476l-19 -209h-106l-105 -1225h-233l-608 895q-20 29 -37 74h-4l-62 -760h135l-18 -209h-475z" />
<glyph unicode="O" horiz-adv-x="1478" d="M53 651q0 354 198 585.5t529 231.5q166 0 294 -58t202 -157.5t111.5 -218.5t37.5 -252q0 -354 -197.5 -585.5t-529.5 -231.5q-166 0 -294 58.5t-201.5 158t-111.5 218t-38 251.5zM360 649q0 -217 92.5 -333.5t256.5 -116.5q190 0 299.5 162.5t109.5 422.5q0 217 -92 334 t-256 117q-190 0 -300 -163t-110 -423z" />
<glyph unicode="P" horiz-adv-x="1175" d="M39 0l18 209h107l88 1016h-135l18 209h514q252 0 381 -93.5t129 -310.5t-146.5 -343t-394.5 -126h-143l-29 -352h136l-19 -209h-524zM492 770h149q117 0 182.5 68.5t65.5 181.5q0 117 -64.5 161t-187.5 44h-102z" />
<glyph unicode="Q" horiz-adv-x="1478" d="M53 651q0 354 198 585.5t529 231.5q166 0 294 -58t202 -157.5t111.5 -218.5t37.5 -252q0 -121 -26.5 -240.5t-80.5 -229t-149.5 -184.5t-220.5 -93v-4q113 -6 206 -40t143.5 -70t111.5 -64.5t121 -28.5q41 0 100 22l-20 -208q-63 -35 -144 -35q-117 0 -266 82l-203 110 q-166 90 -252 127t-178 49.5t-175 52.5t-162.5 113.5t-128 205.5t-48.5 304zM360 649q0 -217 92.5 -333.5t256.5 -116.5q190 0 299.5 162.5t109.5 422.5q0 217 -92 334t-256 117q-190 0 -300 -163t-110 -423z" />
<glyph unicode="R" horiz-adv-x="1290" d="M39 0l18 209h107l88 1016h-135l18 209h592q205 0 318.5 -95.5t113.5 -269.5q0 -172 -100.5 -278.5t-298.5 -122.5v-4q139 -8 205 -142l108 -219q29 -55 50.5 -74.5t50.5 -19.5h77l-18 -209h-207q-125 0 -180 115l-166 346q-37 78 -68.5 101.5t-87.5 23.5h-45l-33 -377 h136l-19 -209h-524zM496 795h98q295 0 295 241q0 188 -242 189h-112z" />
<glyph unicode="S" horiz-adv-x="1214" d="M70 37q0 35 6 193.5t6 191.5h233v-186q98 -37 231.5 -37t208 53t74.5 156q0 59 -37.5 98t-134.5 74l-251 90q-285 102 -285 368q0 199 146.5 314.5t408.5 115.5q197 0 422 -67l-25 -373h-221v189q-98 31 -184 30q-127 0 -189.5 -48t-62.5 -128q0 -53 36.5 -89t133.5 -73 l272 -104q266 -102 266 -356q0 -203 -154.5 -343.5t-445.5 -140.5q-272 0 -454 72z" />
<glyph unicode="T" horiz-adv-x="1290" d="M39 1028l39 406h1251l-24 -406h-222v197h-252l-88 -1016h136l-19 -209h-524l18 209h107l88 1016h-260l-17 -197h-233z" />
<glyph unicode="U" horiz-adv-x="1517" d="M109 1225l20 209h520l-18 -209h-105l-55 -553q-16 -168 -16 -246q0 -227 272 -227q170 0 250 74.5t96 275.5l55 676h-141l19 209h491l-18 -209h-105l-55 -664q-29 -330 -165 -463t-449 -133q-532 0 -533 436q0 57 18 242l54 582h-135z" />
<glyph unicode="V" horiz-adv-x="1478" d="M47 1225l19 209h532l-18 -209h-101l193 -746q18 -78 47 -233h4q16 63 70 184l340 795h-144l19 209h532l-18 -209h-107l-571 -1225h-320l-364 1225h-113z" />
<glyph unicode="W" horiz-adv-x="2199" d="M37 1225l18 209h525l-19 -209h-104l178 -752q39 -166 49 -264h4q31 104 74 205l260 583l-66 228h-112l18 209h512l-18 -209h-105l185 -789q25 -104 39 -203h4q25 96 73 216l316 776h-150l19 209h524l-18 -209h-105l-534 -1225h-320l-176 676h-4l-293 -676h-319l-342 1225 h-113z" />
<glyph unicode="X" horiz-adv-x="1441" d="M-12 0l18 209h107l462 520l-346 496h-106l18 209h557l-18 -209h-119q39 -39 76 -95l131 -196l186 201q68 72 97 86v4h-160l18 209h545l-18 -209h-103l-432 -484l371 -532h106l-18 -209h-557l18 209h119q-41 41 -72 84l-174 262l-223 -281q-10 -12 -63 -65h167l-18 -209 h-569z" />
<glyph unicode="Y" horiz-adv-x="1402" d="M27 1225l18 209h557l-18 -209h-119q41 -51 59 -84l207 -363l291 385q23 27 59 62h-168l19 209h532l-18 -209h-107l-501 -656l-29 -360h133l-18 -209h-533l19 209h116l29 338l-422 678h-106z" />
<glyph unicode="Z" horiz-adv-x="1290" d="M16 0l19 197l801 954q23 27 73 74h-516l-8 -197h-246l33 406h1102l-19 -197l-813 -971q-12 -16 -59 -57h563l31 209h233l-36 -418h-1158z" />
<glyph unicode="[" horiz-adv-x="681" d="M88 -514l172 2089h453l-19 -209h-184l-137 -1671h184l-18 -209h-451z" />
<glyph unicode="\" horiz-adv-x="757" d="M-106 1526l192 80l778 -1698l-192 -80z" />
<glyph unicode="]" horiz-adv-x="681" d="M-61 -514l18 209h184l138 1671h-185l19 209h450l-172 -2089h-452z" />
<glyph unicode="^" horiz-adv-x="1228" d="M127 686l365 748h245l365 -748h-221l-267 526l-266 -526h-221z" />
<glyph unicode="_" horiz-adv-x="1024" d="M0 -154h1024v-102h-1024v102z" />
<glyph unicode="`" horiz-adv-x="569" d="M63 1511l175 129l391 -350l-164 -116z" />
<glyph unicode="a" horiz-adv-x="1214" d="M74 379q0 334 176 523.5t440 189.5q145 0 291 -45h104q-23 -94 -32 -213l-52 -625h129l-18 -209h-373q25 246 68 408h-8q-63 -215 -173 -321.5t-245 -106.5q-139 0 -223 100t-84 299zM356 410q0 -184 86 -185q70 0 147 98.5t132 250t63 292.5q-66 16 -104 17 q-150 0 -237 -137t-87 -336z" />
<glyph unicode="b" horiz-adv-x="1175" d="M43 1366l18 209h431l-43 -516q-16 -184 -62 -346h6q61 186 174 282.5t256 96.5q131 0 211 -101.5t80 -277.5q0 -315 -168 -524t-473 -209q-190 0 -383 86q23 178 35 327l80 973h-162zM373 225q61 -25 137 -24q137 0 229 146.5t92 332.5q0 166 -79 166 q-117 0 -231.5 -180.5t-147.5 -440.5z" />
<glyph unicode="c" horiz-adv-x="909" d="M49 471q0 303 161 462t406 159q154 0 285 -45l-24 -320h-222v143q-16 12 -53 13q-106 0 -188 -91.5t-82 -281.5q0 -147 69.5 -222t194.5 -75q121 0 250 70l-27 -234q-125 -70 -295 -69q-221 0 -348 120.5t-127 370.5z" />
<glyph unicode="d" horiz-adv-x="1214" d="M74 379q0 334 176 523.5t440 189.5q55 0 113 -13l26 287h-161l18 209h430l-115 -1366h129l-18 -209h-373q25 246 68 408h-8q-63 -215 -173 -321.5t-245 -106.5q-139 0 -223 100t-84 299zM356 410q0 -184 86 -185q70 0 147 98.5t132 250t63 292.5q-66 16 -104 17 q-150 0 -237 -137t-87 -336z" />
<glyph unicode="e" horiz-adv-x="985" d="M49 432q0 303 155.5 481.5t424.5 178.5q170 0 255 -71t85 -187q0 -166 -161 -286t-476 -142q8 -193 235 -193q150 0 328 82l-37 -246q-150 -70 -338 -69q-471 -1 -471 452zM332 582q354 47 354 215q0 86 -104 86q-113 0 -176.5 -85t-73.5 -216z" />
<glyph unicode="f" horiz-adv-x="720" d="M-233 -514l20 215q66 -18 127 -18q86 0 132 37.5t76 149.5t46 333l49 659h-141l18 209h137q14 276 130 396t333 120q129 0 219 -33l-24 -198q-68 23 -148 22q-109 0 -170 -60.5t-69 -246.5h223l-18 -209h-220l-55 -756q-14 -195 -51 -323.5t-99.5 -197t-137 -96.5 t-177.5 -28q-108 0 -200 25z" />
<glyph unicode="g" horiz-adv-x="1138" d="M16 -451l29 246q63 -47 157.5 -73.5t180.5 -26.5q170 0 250 86t98 303q14 184 53 305h-6q-53 -186 -168.5 -297.5t-253.5 -111.5q-141 0 -224 102t-83 309q0 309 164 505t453 196q162 0 319 -45h86q-12 -57 -21.5 -131t-13.5 -128l-12 -152l-12 -149l-43 -481 q-49 -545 -557 -545q-242 0 -396 88zM332 387q0 -78 25.5 -120t66.5 -42q68 0 143.5 98.5t130 250t62.5 292.5q-66 16 -105 17q-152 0 -237.5 -141.5t-85.5 -354.5z" />
<glyph unicode="h" horiz-adv-x="1290" d="M88 1366l18 209h431l-37 -436q-23 -276 -70 -451h8q137 403 451 404q250 0 250 -293q0 -119 -15 -228l-45 -362h123l-18 -209h-410l74 506q20 135 20 229q0 111 -61 111q-127 0 -252 -246q-70 -137 -101.5 -273.5t-54.5 -326.5h-270q29 162 45 381l76 985h-162z" />
<glyph unicode="i" d="M61 862l19 209h397l-71 -862h129l-19 -209h-397l71 862h-129zM180 1432q0 80 54.5 127t136.5 47q78 0 126 -43t48 -115q0 -82 -52.5 -128t-136.5 -46q-80 0 -128 43t-48 115z" />
<glyph unicode="j" horiz-adv-x="645" d="M-156 -354q174 72 243 204t89 379l53 633h-129l19 209h397l-78 -895q-25 -283 -118 -431t-277 -234l-104 -50zM219 1432q0 80 54.5 127t136.5 47q78 0 126 -43t48 -115q0 -82 -52.5 -128t-136.5 -46q-80 0 -128 43t-48 115z" />
<glyph unicode="k" horiz-adv-x="1175" d="M88 1366l18 209h431q-6 -59 -18.5 -231.5t-30 -305.5t-46.5 -258h7q61 150 173.5 231t243.5 81q119 0 191.5 -61.5t72.5 -170.5q0 -260 -378 -422l202 -229h136l-19 -209h-307l-322 397q-31 -227 -43 -397h-270q29 162 45 381l76 985h-162zM453 467q184 61 289.5 144 t105.5 171q0 35 -20.5 55.5t-55.5 20.5q-82 0 -168 -89t-131 -237z" />
<glyph unicode="l" d="M72 1366l18 209h430l-114 -1366h129l-19 -209h-397l114 1366h-161z" />
<glyph unicode="m" horiz-adv-x="1896" d="M68 862l18 209h397q-10 -209 -53 -383h8q137 403 451 404q106 0 163.5 -74t57.5 -180q0 -23 -4 -60h6q51 133 152.5 223.5t230.5 90.5q250 0 250 -293q0 -119 -14 -228l-45 -362h122l-18 -209h-410l74 506q20 135 21 229q0 111 -62 111q-51 0 -114.5 -65.5t-120.5 -180.5 q-70 -137 -102 -273.5t-54 -326.5h-264l73 506q20 135 21 229q0 111 -61 111q-51 0 -115 -65.5t-121 -180.5q-70 -137 -101.5 -273.5t-54.5 -326.5h-270q33 193 45 381l33 481h-139z" />
<glyph unicode="n" horiz-adv-x="1290" d="M68 862l18 209h397q-10 -209 -53 -383h8q137 403 451 404q250 0 250 -293q0 -119 -15 -228l-45 -362h123l-18 -209h-410l74 506q20 135 20 229q0 111 -61 111q-127 0 -252 -246q-70 -137 -101.5 -273.5t-54.5 -326.5h-270q33 193 45 381l33 481h-139z" />
<glyph unicode="o" horiz-adv-x="1099" d="M49 477q0 299 152.5 457t398.5 158q195 0 323 -124t128 -374q0 -299 -153 -456.5t-396 -157.5q-195 0 -324 123.5t-129 373.5zM332 492q0 -279 188 -279q121 0 184.5 94t63.5 273q0 279 -188 278q-119 0 -183.5 -94t-64.5 -272z" />
<glyph unicode="p" horiz-adv-x="1214" d="M-25 -514l19 209h110l101 1167h-139l18 209h397q-12 -195 -55 -358h6q61 186 174 282.5t256 96.5q131 0 211 -101.5t80 -277.5q0 -315 -168 -524t-473 -209q-70 0 -115 10l-22 -295h131l-19 -209h-512zM412 225q61 -25 137 -24q137 0 229 146.5t92 332.5q0 166 -79 166 q-117 0 -231.5 -180.5t-147.5 -440.5z" />
<glyph unicode="q" horiz-adv-x="1214" d="M74 379q0 334 176 523.5t440 189.5q145 0 291 -45h104q-27 -141 -45 -355l-77 -997h131l-19 -209h-512l19 209h110q37 471 94 682h-6q-57 -188 -163.5 -292.5t-235.5 -104.5q-139 0 -223 100t-84 299zM356 387q0 -72 25 -117t59 -45q106 0 219 211t125 430 q-66 16 -104 17q-152 0 -238 -141.5t-86 -354.5z" />
<glyph unicode="r" horiz-adv-x="909" d="M68 862l18 209h397q-23 -248 -47 -383h8q47 217 145.5 305t241.5 88q37 0 68 -10l-37 -260q-29 4 -43 4q-68 0 -120 -27.5t-109.5 -107.5t-101.5 -251t-74 -429h-271q27 246 33 365l31 497h-139z" />
<glyph unicode="s" horiz-adv-x="1024" d="M53 41l13 295h245q0 -23 -3 -63t-3 -52q80 -33 164 -33q90 0 136 35t46 88q0 49 -57 77t-138 44.5t-163 43t-139.5 93t-57.5 172.5q0 164 122 257.5t341 93.5q170 0 350 -64q0 -25 -4 -139.5t-4 -143.5h-233v111q-59 27 -133 27q-168 0 -168 -105q0 -41 41 -66.5 t102 -36.5t134 -32.5t134.5 -50.5t102.5 -91.5t41 -152.5q0 -166 -122 -267t-339 -101q-205 0 -408 61z" />
<glyph unicode="t" horiz-adv-x="757" d="M68 862l18 209h145l21 229l270 21l-20 -250h284l-18 -209h-287l-28 -327q-16 -197 -17 -216q0 -111 96 -110q61 0 189 57l-23 -225q-119 -53 -247 -53q-285 0 -285 282q0 4 16 217l29 375h-143z" />
<glyph unicode="u" horiz-adv-x="1290" d="M88 862l18 209h426l-73 -512q-27 -199 -27 -246q0 -88 64 -88q111 0 226.5 225.5t172.5 620.5h270q-37 -182 -61 -471l-33 -391h131l-18 -209h-381q18 227 65 387h-6q-141 -408 -442 -407q-258 0 -258 301q0 43 24 284l31 297h-129z" />
<glyph unicode="v" horiz-adv-x="1175" d="M53 862l19 209h417q-33 -307 -32 -555q0 -168 20.5 -229.5t69.5 -61.5q102 0 189 180.5t104 456.5h-146l19 209h409q-8 -211 -46 -393t-108.5 -345t-193.5 -258t-287 -95q-162 0 -237.5 115.5t-75.5 414.5q0 190 19 352h-140z" />
<glyph unicode="w" horiz-adv-x="1781" d="M61 862l19 209h434q-66 -467 -65 -665q0 -102 24.5 -141.5t75.5 -39.5q100 0 176 226.5t113 619.5h270q-53 -514 -53 -616q0 -125 24.5 -177.5t75.5 -52.5q92 0 164 173t98 464h-137l16 209h390q-23 -557 -173.5 -824t-396.5 -267q-145 0 -207.5 91t-62.5 226v41h-4 q-66 -195 -158 -276.5t-235 -81.5q-283 0 -283 352q0 178 41 530h-146z" />
<glyph unicode="x" horiz-adv-x="1138" d="M4 0l19 197l385 331l-201 334h-141l18 209h319l230 -381l205 184h-144l19 197h422l-19 -197l-389 -337l197 -328h141l-18 -209h-320l-225 375l-201 -178h156l-19 -197h-434z" />
<glyph unicode="y" horiz-adv-x="1138" d="M-10 -514l16 221q70 -25 115 -24q158 0 248 176l73 141l-276 862h-131l20 209h367l149 -602q25 -96 31 -186h4q8 51 92 260l133 331h-172l21 197h410l-21 -209l-260 -604q-111 -258 -200 -419t-169 -242.5t-145.5 -108.5t-153.5 -27q-57 0 -151 25z" />
<glyph unicode="z" horiz-adv-x="1062" d="M35 0l16 197l473 546q29 33 115 119h-289l-16 -123h-234l33 332h856l-16 -197l-492 -563q-10 -12 -100 -102h346l16 135h222l-33 -344h-897z" />
<glyph unicode="{" horiz-adv-x="681" d="M6 455l12 151q76 4 140.5 75t72.5 165l37 424q12 141 94 223t189 82h190l-12 -152h-55q-63 0 -92 -41t-35 -118l-37 -418q-10 -121 -79 -203t-161 -111v-4q78 -25 131.5 -96.5t53.5 -181.5q0 -78 -6 -133l-23 -258q-10 -92 -10 -119q0 -41 25.5 -71.5t76.5 -30.5h53 l-12 -152h-190q-98 0 -167 70.5t-69 193.5q0 10 2 29.5t4 49.5t4 50l23 252q6 74 6 123q0 78 -49 137.5t-117 63.5z" />
<glyph unicode="|" horiz-adv-x="454" d="M117 -512v2048h221v-2048h-221z" />
<glyph unicode="}" horiz-adv-x="681" d="M-90 -514l12 152h55q63 0 92 40.5t35 118.5l37 418q10 121 79 203t161 110v4q-78 25 -131 96.5t-53 182.5q0 78 6 133l22 258q10 92 11 119q0 41 -26 71.5t-77 30.5h-53l12 152h191q98 0 166.5 -70.5t68.5 -193.5q0 -10 -2 -29.5t-4 -49.5t-4 -50l-23 -252 q-6 -74 -6 -123q0 -78 49.5 -137.5t116.5 -63.5l-12 -151q-76 -4 -140.5 -75t-72.5 -165l-37 -424q-12 -141 -94 -223t-189 -82h-190z" />
<glyph unicode="~" horiz-adv-x="1228" d="M141 522q86 176 256 176q82 0 238 -69q160 -70 199 -70q37 0 71.5 23.5t53 48t55.5 78.5l73 -195q-104 -176 -256 -176q-82 0 -218 69.5t-226 69.5q-104 0 -172 -149z" />
<glyph unicode="&#xa0;" />
<glyph unicode="&#xa1;" d="M41 -483l111 1116h270l-62 -1116h-319zM139 938q0 84 51.5 129t139.5 45q80 0 127 -41t47 -115q0 -84 -51.5 -130t-137.5 -46q-82 0 -129 42t-47 116z" />
<glyph unicode="&#xa2;" horiz-adv-x="1212" d="M129 459q0 154 47 278.5t122 198.5t159 114t166 42l16 196h176l-16 -196q180 0 299 -45l-25 -320h-209v143q-37 14 -86 15l-55 -699q154 2 307 70l-20 -229q-96 -53 -308 -62l-20 -250h-176l20 250q-195 25 -296 157t-101 337zM412 492q0 -213 137 -273l53 651 q-190 -75 -190 -378z" />
<glyph unicode="&#xa3;" horiz-adv-x="1212" d="M0 0l18 209h113q84 117 84 422h-182l18 209h164v100q0 276 164 402t424 126q166 0 368 -59v-360h-233v184q-78 14 -129 14q-156 0 -240 -69.5t-84 -235.5v-102h312l-19 -209h-293q0 -150 -16 -241t-68 -181h447l29 197h233l-37 -406h-1073z" />
<glyph unicode="&#xa4;" horiz-adv-x="1212" d="M63 309l123 123q-88 125 -88 285t88 284l-123 123l127 123l121 -117q133 94 295 94.5t295 -94.5l121 117l127 -123l-123 -123q88 -125 88 -284.5t-88 -284.5l123 -123l-127 -123l-121 117q-133 -94 -295 -94t-295 94l-121 -117zM319 717q0 -133 83 -216t204 -83t204 83 t83 216t-83 216t-204 83t-204 -83t-83 -216z" />
<glyph unicode="&#xa5;" horiz-adv-x="1212" d="M45 1225l18 209h482l-19 -209h-94l213 -449l301 449h-135l18 209h461l-18 -209h-92l-295 -430h180l-21 -177h-278l-33 -49l-4 -34h307l-20 -177h-301l-13 -149h115l-18 -209h-461l20 209h99l12 149h-301l20 177h295l4 24l-30 59h-260l20 177h148l-228 430h-92z" />
<glyph unicode="&#xa6;" horiz-adv-x="454" d="M117 -358v716h221v-716h-221zM117 666v716h221v-716h-221z" />
<glyph unicode="&#xa7;" horiz-adv-x="1212" d="M111 -45h233v-143q119 -27 166 -27q117 0 174 44t57 114q0 51 -44 94t-160 100q-213 102 -299 192.5t-86 194.5q0 223 243 305q-106 53 -150 116t-44 155q0 150 119.5 259t363.5 109q213 0 391 -63v-295h-233v127q-104 23 -160 23q-211 0 -211 -138q0 -49 41 -85 t203 -122q215 -115 280.5 -188.5t65.5 -179.5q0 -109 -63.5 -186.5t-184.5 -100.5v-4q199 -104 199 -285q0 -172 -137.5 -283.5t-364.5 -111.5q-223 0 -399 64v315zM410 578q0 -72 73 -113l199 -115q51 20 86 64.5t35 89.5q0 41 -26.5 75.5t-117.5 84.5l-120 65 q-61 -18 -95 -60t-34 -91z" />
<glyph unicode="&#xa8;" horiz-adv-x="569" d="M-70 1395q0 68 49.5 117t126.5 49q74 0 121 -44t47 -110q0 -70 -49 -118t-129 -48q-74 0 -120 44t-46 110zM383 1395q0 68 48 117t128 49q74 0 121 -44t47 -110q0 -70 -49 -118t-129 -48q-74 0 -120 44t-46 110z" />
<glyph unicode="&#xa9;" horiz-adv-x="1638" d="M68 717q0 311 220 531t531 220t531.5 -220t220.5 -531t-220.5 -531.5t-531.5 -220.5t-531 220.5t-220 531.5zM264 717q0 -248 162 -412t393.5 -164t393 164t161.5 412t-161.5 411.5t-393 163.5t-393.5 -163.5t-162 -411.5zM418 719q0 209 114.5 330.5t309.5 121.5 q141 0 241.5 -81.5t120.5 -229.5h-164q-31 160 -202 160q-113 0 -178.5 -85t-65.5 -216q0 -135 66.5 -219t185.5 -84q78 0 132 45t62 125h177q-31 -150 -135.5 -236t-254.5 -86q-184 0 -296.5 124t-112.5 331z" />
<glyph unicode="&#xaa;" horiz-adv-x="788" d="M29 1038q0 209 117.5 319.5t308.5 110.5q68 0 188 -22h88q-16 -61 -22 -135l-33 -344h84l-12 -152h-261q14 131 43 240h-4q-41 -129 -112.5 -192.5t-159.5 -63.5q-225 -1 -225 239zM238 1042q0 -31 16 -55t39 -24q68 0 141.5 119.5t81.5 224.5q-51 10 -67 10 q-98 0 -154.5 -81t-56.5 -194z" />
<glyph unicode="&#xab;" horiz-adv-x="1099" d="M68 528l16 183l324 303l155 -158l-260 -246l211 -256l-180 -147zM561 528l17 183l323 303l156 -158l-260 -246l211 -256l-181 -147z" />
<glyph unicode="&#xac;" horiz-adv-x="1228" d="M96 604v221h1037v-614h-222v393h-815z" />
<glyph unicode="&#xad;" horiz-adv-x="833" d="M127 494l23 233h557l-23 -233h-557z" />
<glyph unicode="&#xae;" horiz-adv-x="1638" d="M68 717q0 311 220 531t531 220t531.5 -220t220.5 -531t-220.5 -531.5t-531.5 -220.5t-531 220.5t-220 531.5zM264 717q0 -248 162 -412t393.5 -164t393 164t161.5 412t-161.5 411.5t-393 163.5t-393.5 -163.5t-162 -411.5zM498 287v860h331q324 0 324 -248 q0 -203 -221 -244l233 -368h-176l-215 362h-125v-362h-151zM649 776h154q113 0 155.5 30t42.5 99q0 115 -194 115h-158v-244z" />
<glyph unicode="&#xaf;" horiz-adv-x="569" d="M31 1309l16 209h621l-17 -209h-620z" />
<glyph unicode="&#xb0;" horiz-adv-x="819" d="M143 1175.5q0 120.5 86 206.5t207 86t207 -86t86 -206.5t-86 -206.5t-207 -86t-207 86t-86 206.5zM307 1175.5q0 -53.5 38 -91t91 -37.5t91 37.5t38 91t-38 91.5t-91 38t-91 -38t-38 -91.5z" />
<glyph unicode="&#xb1;" horiz-adv-x="1228" d="M96 0v221h1037v-221h-1037zM96 547v221h408v268h221v-268h408v-221h-408v-268h-221v268h-408z" />
<glyph unicode="&#xb2;" horiz-adv-x="788" d="M25 582l12 139q184 100 351 246.5t167 240.5q0 41 -34 69t-85 28q-59 0 -103 -32t-52 -91h-189q23 143 117 214.5t244 71.5q139 0 225 -58t86 -173q0 -119 -129 -255t-336 -245v-4q66 12 115 12h321l-12 -163h-698z" />
<glyph unicode="&#xb3;" horiz-adv-x="788" d="M33 618l12 173q119 -66 270 -66q98 0 154.5 31.5t56.5 68.5q0 66 -70.5 90.5t-205.5 24.5l12 152q135 0 210 42t75 97q0 33 -30 53.5t-77 20.5q-117 0 -157 -99h-177q12 123 112.5 192.5t234.5 69.5q141 0 222 -56t81 -157q0 -80 -70 -140t-184 -68v-5q123 -8 184.5 -62 t61.5 -142q0 -113 -101.5 -195t-308.5 -82q-166 0 -305 57z" />
<glyph unicode="&#xb4;" horiz-adv-x="569" d="M47 1313l453 327l162 -129l-478 -337z" />
<glyph unicode="&#xb5;" horiz-adv-x="1290" d="M76 -514l141 1376h-129l18 209h426l-73 -512q-27 -199 -27 -246q0 -88 64 -88q111 0 226.5 225.5t172.5 620.5h270q-37 -182 -61 -471l-33 -391h131l-18 -209h-381q18 227 65 387h-6q-72 -205 -185.5 -306t-207.5 -101q-68 0 -86 53h-4l-57 -547h-246z" />
<glyph unicode="&#xb6;" horiz-adv-x="1228" d="M104 1008q0 207 136.5 316.5t377.5 109.5h512l-159 -1823h-203l147 1683h-204l-148 -1683h-203l93 1063q-152 0 -250.5 96.5t-98.5 237.5z" />
<glyph unicode="&#xb7;" d="M131 544.5q0 69.5 51 121t121 51.5t121 -51.5t51 -121t-51 -120.5t-121 -51t-121 51t-51 120.5z" />
<glyph unicode="&#xb8;" horiz-adv-x="569" d="M0 -514l33 131q127 -35 182 -35q133 0 133 74q0 41 -29.5 60.5t-119.5 21.5l34 282h152l-23 -180q195 -6 195 -170q0 -96 -87 -161.5t-243 -65.5q-112 0 -227 43z" />
<glyph unicode="&#xb9;" horiz-adv-x="788" d="M78 1253l313 181h201l-68 -713h187l-15 -139h-565l14 139h170l56 545l-4 4q-18 -20 -54 -41l-166 -96z" />
<glyph unicode="&#xba;" horiz-adv-x="788" d="M74 1098q0 182 102.5 276t274.5 94q141 0 227 -74.5t86 -226.5q0 -182 -102.5 -275t-274.5 -93q-141 0 -227 73.5t-86 225.5zM283 1106q0 -143 116 -143q74 0 115 53t41 143q0 145 -117 146q-72 0 -113.5 -53.5t-41.5 -145.5z" />
<glyph unicode="&#xbb;" horiz-adv-x="1099" d="M43 365l260 245l-211 256l180 148l267 -322l-17 -182l-323 -303zM537 365l260 245l-211 256l180 148l266 -322l-16 -182l-324 -303z" />
<glyph unicode="&#xbc;" horiz-adv-x="1820" d="M47 1253l313 181h201l-67 -713h186l-14 -139h-566l15 139h170l55 545l-4 4q-20 -20 -53 -41l-166 -96zM186 -35l1401 1620l142 -117l-1401 -1620zM963 229l10 160l413 463h283l-45 -471h150l-13 -152h-149l-8 -77h98l-12 -152h-381l12 152h74l8 77h-440zM1161 379l4 -4 q18 6 45 6h205l33 303l-4 4z" />
<glyph unicode="&#xbd;" horiz-adv-x="1820" d="M-6 1253l313 181h201l-68 -713h187l-15 -139h-565l14 139h170l56 545l-4 4q-20 -20 -54 -41l-166 -96zM121 -35l1401 1620l141 -117l-1401 -1620zM1034 0l13 139q184 100 351 246.5t167 241.5q0 41 -34 68.5t-85 27.5q-59 0 -103.5 -32t-52.5 -91h-188q23 143 117 215 t243 72q139 0 225.5 -58.5t86.5 -173.5q0 -119 -129 -255t-336 -244v-4q66 12 114 12h322l-12 -164h-699z" />
<glyph unicode="&#xbe;" horiz-adv-x="1820" d="M33 618l12 173q119 -66 270 -66q98 0 154.5 31.5t56.5 68.5q0 66 -70.5 90.5t-205.5 24.5l12 152q135 0 210 42t75 97q0 33 -30 53.5t-77 20.5q-117 0 -157 -99h-177q12 123 112.5 192.5t234.5 69.5q141 0 222 -56t81 -157q0 -80 -70 -140t-184 -68v-5q123 -8 184.5 -62 t61.5 -142q0 -113 -101.5 -195t-308.5 -82q-166 0 -305 57zM186 -35l1401 1620l142 -117l-1401 -1620zM963 229l10 160l413 463h283l-45 -471h150l-13 -152h-149l-8 -77h98l-12 -152h-381l12 152h74l8 77h-440zM1161 379l4 -4q18 6 45 6h205l33 303l-4 4z" />
<glyph unicode="&#xbf;" horiz-adv-x="985" d="M-53 -127q0 115 59.5 204t143 142t167.5 96t143.5 91.5t59.5 101.5q0 45 -35 88l252 76q66 -94 66 -187q0 -76 -37 -132t-123 -107l-233 -135q-156 -90 -156 -211q0 -82 73.5 -131.5t217.5 -49.5q113 0 241 45l-18 -233q-184 -45 -322 -45q-221 0 -360 98.5t-139 288.5z M473 938q0 84 51 129t140 45q80 0 127 -41t47 -115q0 -84 -51.5 -130t-137.5 -46q-82 0 -129 42t-47 116z" />
<glyph unicode="&#xc0;" horiz-adv-x="1478" d="M-41 0l18 209h95l581 1237h332l358 -1237h107l-18 -209h-512l18 209h98l-71 287h-488l-123 -287h135l-18 -209h-512zM518 1802l174 129l391 -350l-163 -117zM565 705h348l-100 409q-18 70 -25 135h-4q-8 -53 -45 -137z" />
<glyph unicode="&#xc1;" horiz-adv-x="1478" d="M-41 0l18 209h95l581 1237h332l358 -1237h107l-18 -209h-512l18 209h98l-71 287h-488l-123 -287h135l-18 -209h-512zM522 1604l453 327l162 -129l-478 -338zM565 705h348l-100 409q-18 70 -25 135h-4q-8 -53 -45 -137z" />
<glyph unicode="&#xc2;" horiz-adv-x="1478" d="M-41 0l18 209h95l581 1237h332l358 -1237h107l-18 -209h-512l18 209h98l-71 287h-488l-123 -287h135l-18 -209h-512zM381 1681l367 250h184l321 -250l-180 -131l-252 197l-289 -197zM565 705h348l-100 409q-18 70 -25 135h-4q-8 -53 -45 -137z" />
<glyph unicode="&#xc3;" horiz-adv-x="1478" d="M-41 0l18 209h95l581 1237h332l358 -1237h107l-18 -209h-512l18 209h98l-71 287h-488l-123 -287h135l-18 -209h-512zM391 1620q98 231 271 231q76 0 172 -63.5t133 -63.5q61 0 118 103l154 -103q-119 -197 -266 -196q-53 0 -164 63.5t-141 63.5q-61 0 -99 -105zM565 705 h348l-100 409q-18 70 -25 135h-4q-8 -53 -45 -137z" />
<glyph unicode="&#xc4;" horiz-adv-x="1478" d="M-41 0l18 209h95l581 1237h332l358 -1237h107l-18 -209h-512l18 209h98l-71 287h-488l-123 -287h135l-18 -209h-512zM410 1686q0 68 49 116.5t127 48.5q74 0 121 -44t47 -109q0 -70 -49.5 -118t-129.5 -48q-74 0 -119.5 44t-45.5 110zM565 705h348l-100 409 q-18 70 -25 135h-4q-8 -53 -45 -137zM862 1686q0 68 48 116.5t128 48.5q74 0 121 -44t47 -109q0 -70 -49 -118t-129 -48q-74 0 -120 44t-46 110z" />
<glyph unicode="&#xc5;" horiz-adv-x="1478" d="M-41 0l18 209h95l581 1237h332l358 -1237h107l-18 -209h-512l18 209h98l-71 287h-488l-123 -287h135l-18 -209h-512zM565 705h348l-100 409q-18 70 -25 135h-4q-8 -53 -45 -137zM590 1688q0 109 71.5 172t174.5 63q90 0 149 -55.5t59 -153.5q0 -109 -71.5 -172 t-173.5 -63q-90 0 -149.5 55.5t-59.5 153.5zM729 1692q0 -47 21.5 -73t56.5 -26q39 0 68.5 33t29.5 92q0 49 -21.5 76t-56.5 27q-39 0 -68.5 -33t-29.5 -96z" />
<glyph unicode="&#xc6;" horiz-adv-x="2009" d="M-41 0l18 209h95l747 1225h1108l-24 -406h-222v197h-329l-35 -418h352l-18 -209h-353l-32 -389h397l25 197h233l-37 -406h-1026l19 209h106l33 389h-438l-224 -389h135l-18 -209h-512zM696 807h338l35 418h-133z" />
<glyph unicode="&#xc7;" horiz-adv-x="1290" d="M70 647q0 373 206.5 597t589.5 224q195 0 416 -55l-25 -360h-221v174q-82 20 -174 20q-252 0 -368.5 -164.5t-116.5 -418.5t114.5 -359.5t317.5 -105.5q72 0 158 24l32 183h222l-33 -369q-188 -55 -359 -72l-16 -125q195 -6 195 -170q0 -96 -87 -161.5t-243 -65.5 q-113 0 -227 43l32 131q127 -35 183 -35q133 0 133 74q0 41 -30 60.5t-120 21.5l29 227q-317 27 -462.5 215t-145.5 467z" />
<glyph unicode="&#xc8;" horiz-adv-x="1214" d="M39 0l18 209h107l88 1016h-135l18 209h1026l-24 -406h-222v197h-380l-33 -377h387l-19 -209h-387l-37 -430h398l24 197h234l-37 -406h-1026zM387 1802l174 129l391 -350l-164 -117z" />
<glyph unicode="&#xc9;" horiz-adv-x="1214" d="M39 0l18 209h107l88 1016h-135l18 209h1026l-24 -406h-222v197h-380l-33 -377h387l-19 -209h-387l-37 -430h398l24 197h234l-37 -406h-1026zM371 1604l452 327l162 -129l-477 -338z" />
<glyph unicode="&#xca;" horiz-adv-x="1214" d="M39 0l18 209h107l88 1016h-135l18 209h1026l-24 -406h-222v197h-380l-33 -377h387l-19 -209h-387l-37 -430h398l24 197h234l-37 -406h-1026zM250 1681l366 250h185l321 -250l-180 -131l-252 197l-289 -197z" />
<glyph unicode="&#xcb;" horiz-adv-x="1214" d="M39 0l18 209h107l88 1016h-135l18 209h1026l-24 -406h-222v197h-380l-33 -377h387l-19 -209h-387l-37 -430h398l24 197h234l-37 -406h-1026zM254 1686q0 68 49 116.5t127 48.5q74 0 121 -44t47 -109q0 -70 -49 -118t-129 -48q-74 0 -120 44t-46 110zM707 1686 q0 68 48 116.5t128 48.5q74 0 121 -44t47 -109q0 -70 -49.5 -118t-129.5 -48q-74 0 -119.5 44t-45.5 110z" />
<glyph unicode="&#xcc;" horiz-adv-x="681" d="M31 0l18 209h107l88 1016h-135l18 209h524l-18 -209h-107l-88 -1016h135l-18 -209h-524zM121 1802l174 129l391 -350l-164 -117z" />
<glyph unicode="&#xcd;" horiz-adv-x="681" d="M31 0l18 209h107l88 1016h-135l18 209h524l-18 -209h-107l-88 -1016h135l-18 -209h-524zM104 1604l453 327l162 -129l-477 -338z" />
<glyph unicode="&#xce;" horiz-adv-x="681" d="M-16 1681l366 250h185l321 -250l-180 -131l-252 197l-289 -197zM31 0l18 209h107l88 1016h-135l18 209h524l-18 -209h-107l-88 -1016h135l-18 -209h-524z" />
<glyph unicode="&#xcf;" horiz-adv-x="681" d="M-12 1686q0 68 49 116.5t127 48.5q74 0 121 -44t47 -109q0 -70 -49.5 -118t-128.5 -48q-74 0 -120 44t-46 110zM31 0l18 209h107l88 1016h-135l18 209h524l-18 -209h-107l-88 -1016h135l-18 -209h-524zM440 1686q0 68 48.5 116.5t127.5 48.5q74 0 121 -44t47 -109 q0 -70 -49 -118t-129 -48q-74 0 -120 44t-46 110z" />
<glyph unicode="&#xd0;" horiz-adv-x="1517" d="M39 0l18 209h107l37 430h-121l18 209h121l33 377h-135l18 209h621q342 0 519 -160t177 -459q0 -367 -208 -591t-568 -224h-637zM446 209h224q160 0 273.5 84t163.5 213t50 287q0 432 -432 432h-190l-33 -377h350l-18 -209h-351z" />
<glyph unicode="&#xd1;" horiz-adv-x="1593" d="M31 0l18 209h107l88 1016h-135l18 209h358l611 -893q20 -33 41 -78h4l63 762h-135l18 209h476l-19 -209h-106l-105 -1225h-233l-608 895q-20 29 -37 74h-4l-62 -760h135l-18 -209h-475zM449 1620q98 231 270 231q76 0 172 -63.5t133 -63.5q61 0 119 103l153 -103 q-119 -197 -266 -196q-53 0 -163.5 63.5t-141.5 63.5q-61 0 -98 -105z" />
<glyph unicode="&#xd2;" horiz-adv-x="1478" d="M53 651q0 354 198 585.5t529 231.5q166 0 294 -58t202 -157.5t111.5 -218.5t37.5 -252q0 -354 -197.5 -585.5t-529.5 -231.5q-166 0 -294 58.5t-201.5 158t-111.5 218t-38 251.5zM360 649q0 -217 92.5 -333.5t256.5 -116.5q190 0 299.5 162.5t109.5 422.5q0 217 -92 334 t-256 117q-190 0 -300 -163t-110 -423zM518 1802l174 129l391 -350l-163 -117z" />
<glyph unicode="&#xd3;" horiz-adv-x="1478" d="M53 651q0 354 198 585.5t529 231.5q166 0 294 -58t202 -157.5t111.5 -218.5t37.5 -252q0 -354 -197.5 -585.5t-529.5 -231.5q-166 0 -294 58.5t-201.5 158t-111.5 218t-38 251.5zM360 649q0 -217 92.5 -333.5t256.5 -116.5q190 0 299.5 162.5t109.5 422.5q0 217 -92 334 t-256 117q-190 0 -300 -163t-110 -423zM502 1604l452 327l162 -129l-477 -338z" />
<glyph unicode="&#xd4;" horiz-adv-x="1478" d="M53 651q0 354 198 585.5t529 231.5q166 0 294 -58t202 -157.5t111.5 -218.5t37.5 -252q0 -354 -197.5 -585.5t-529.5 -231.5q-166 0 -294 58.5t-201.5 158t-111.5 218t-38 251.5zM360 649q0 -217 92.5 -333.5t256.5 -116.5q190 0 299.5 162.5t109.5 422.5q0 217 -92 334 t-256 117q-190 0 -300 -163t-110 -423zM381 1681l367 250h184l321 -250l-180 -131l-252 197l-289 -197z" />
<glyph unicode="&#xd5;" horiz-adv-x="1478" d="M53 651q0 354 198 585.5t529 231.5q166 0 294 -58t202 -157.5t111.5 -218.5t37.5 -252q0 -354 -197.5 -585.5t-529.5 -231.5q-166 0 -294 58.5t-201.5 158t-111.5 218t-38 251.5zM360 649q0 -217 92.5 -333.5t256.5 -116.5q190 0 299.5 162.5t109.5 422.5q0 217 -92 334 t-256 117q-190 0 -300 -163t-110 -423zM391 1620q98 231 271 231q76 0 172 -63.5t133 -63.5q61 0 118 103l154 -103q-119 -197 -266 -196q-53 0 -164 63.5t-141 63.5q-61 0 -99 -105z" />
<glyph unicode="&#xd6;" horiz-adv-x="1478" d="M53 651q0 354 198 585.5t529 231.5q166 0 294 -58t202 -157.5t111.5 -218.5t37.5 -252q0 -354 -197.5 -585.5t-529.5 -231.5q-166 0 -294 58.5t-201.5 158t-111.5 218t-38 251.5zM360 649q0 -217 92.5 -333.5t256.5 -116.5q190 0 299.5 162.5t109.5 422.5q0 217 -92 334 t-256 117q-190 0 -300 -163t-110 -423zM385 1686q0 68 49 116.5t127 48.5q74 0 121 -44t47 -109q0 -70 -49 -118t-129 -48q-74 0 -120 44t-46 110zM838 1686q0 68 48 116.5t128 48.5q74 0 121 -44t47 -109q0 -70 -49.5 -118t-128.5 -48q-74 0 -120 44t-46 110z" />
<glyph unicode="&#xd7;" horiz-adv-x="1228" d="M127 186l334 332l-334 332l156 156l331 -334l332 334l156 -156l-334 -332l334 -332l-156 -155l-332 334l-331 -334z" />
<glyph unicode="&#xd8;" horiz-adv-x="1478" d="M53 651q0 354 198 585.5t529 231.5q176 0 316 -69l166 243l145 -92l-172 -254q190 -190 190 -514q0 -354 -197.5 -585.5t-529.5 -231.5q-182 0 -319 72l-166 -246l-141 98l170 250q-189 188 -189 512zM360 649q0 -158 50 -262l540 799q-74 49 -180 49q-190 0 -300 -163 t-110 -423zM524 252q74 -53 185 -53q190 0 299.5 162.5t109.5 422.5q0 158 -51 267z" />
<glyph unicode="&#xd9;" horiz-adv-x="1517" d="M109 1225l20 209h520l-18 -209h-105l-55 -553q-16 -168 -16 -246q0 -227 272 -227q170 0 250 74.5t96 275.5l55 676h-141l19 209h491l-18 -209h-105l-55 -664q-29 -330 -165 -463t-449 -133q-532 0 -533 436q0 57 18 242l54 582h-135zM539 1802l174 129l391 -350 l-164 -117z" />
<glyph unicode="&#xda;" horiz-adv-x="1517" d="M109 1225l20 209h520l-18 -209h-105l-55 -553q-16 -168 -16 -246q0 -227 272 -227q170 0 250 74.5t96 275.5l55 676h-141l19 209h491l-18 -209h-105l-55 -664q-29 -330 -165 -463t-449 -133q-532 0 -533 436q0 57 18 242l54 582h-135zM522 1604l453 327l162 -129 l-478 -338z" />
<glyph unicode="&#xdb;" horiz-adv-x="1517" d="M109 1225l20 209h520l-18 -209h-105l-55 -553q-16 -168 -16 -246q0 -227 272 -227q170 0 250 74.5t96 275.5l55 676h-141l19 209h491l-18 -209h-105l-55 -664q-29 -330 -165 -463t-449 -133q-532 0 -533 436q0 57 18 242l54 582h-135zM401 1681l367 250h184l322 -250 l-180 -131l-252 197l-289 -197z" />
<glyph unicode="&#xdc;" horiz-adv-x="1517" d="M109 1225l20 209h520l-18 -209h-105l-55 -553q-16 -168 -16 -246q0 -227 272 -227q170 0 250 74.5t96 275.5l55 676h-141l19 209h491l-18 -209h-105l-55 -664q-29 -330 -165 -463t-449 -133q-532 0 -533 436q0 57 18 242l54 582h-135zM426 1686q0 68 49 116.5t127 48.5 q74 0 121 -44t47 -109q0 -70 -49 -118t-129 -48q-74 0 -120 44t-46 110zM879 1686q0 68 48 116.5t128 48.5q74 0 121 -44t47 -109q0 -70 -49.5 -118t-129.5 -48q-74 0 -119.5 44t-45.5 110z" />
<glyph unicode="&#xdd;" horiz-adv-x="1402" d="M27 1225l18 209h557l-18 -209h-119q41 -51 59 -84l207 -363l291 385q23 27 59 62h-168l19 209h532l-18 -209h-107l-501 -656l-29 -360h133l-18 -209h-533l19 209h116l29 338l-422 678h-106zM516 1604l453 327l161 -129l-477 -338z" />
<glyph unicode="&#xde;" horiz-adv-x="1175" d="M39 0l18 209h107l88 1016h-135l18 209h524l-18 -209h-106l-9 -82h113q498 0 498 -379q0 -184 -140.5 -314.5t-388.5 -130.5h-151l-11 -110h136l-19 -209h-524zM473 528h145q109 0 178.5 62.5t69.5 163.5q0 90 -64.5 135t-174.5 45h-117z" />
<glyph unicode="&#xdf;" horiz-adv-x="1366" d="M-233 -514l20 219q39 -23 98 -22q119 0 172.5 76.5t71.5 287.5l86 1020q25 295 159 417t398 122q209 0 336 -85t127 -243q0 -76 -34 -140.5t-82 -106.5t-96 -77.5t-82 -72.5t-34 -74q0 -43 42 -78t101.5 -64.5t118 -67.5t100.5 -103.5t42 -151.5q0 -162 -119 -262 t-330 -100q-205 0 -327 59l24 285h221v-117q29 -18 99 -19q90 0 132 35t42 88q0 47 -43 83t-104.5 64.5t-122 63.5t-103.5 94.5t-43 141.5q0 86 55.5 159.5t121 114.5t120.5 95.5t55 109.5q0 70 -60.5 108.5t-168.5 38.5q-121 0 -186.5 -66.5t-77.5 -209.5l-101 -1149 q-20 -242 -126.5 -370t-327.5 -128q-92 0 -174 25z" />
<glyph unicode="&#xe0;" horiz-adv-x="1214" d="M74 379q0 334 176 523.5t440 189.5q145 0 291 -45h104q-23 -94 -32 -213l-52 -625h129l-18 -209h-373q25 246 68 408h-8q-63 -215 -173 -321.5t-245 -106.5q-139 0 -223 100t-84 299zM356 410q0 -184 86 -185q70 0 147 98.5t132 250t63 292.5q-66 16 -104 17 q-150 0 -237 -137t-87 -336zM428 1511l174 129l391 -350l-164 -116z" />
<glyph unicode="&#xe1;" horiz-adv-x="1214" d="M74 379q0 334 176 523.5t440 189.5q145 0 291 -45h104q-23 -94 -32 -213l-52 -625h129l-18 -209h-373q25 246 68 408h-8q-63 -215 -173 -321.5t-245 -106.5q-139 0 -223 100t-84 299zM356 410q0 -184 86 -185q70 0 147 98.5t132 250t63 292.5q-66 16 -104 17 q-150 0 -237 -137t-87 -336zM412 1313l452 327l162 -129l-477 -337z" />
<glyph unicode="&#xe2;" horiz-adv-x="1214" d="M74 379q0 334 176 523.5t440 189.5q145 0 291 -45h104q-23 -94 -32 -213l-52 -625h129l-18 -209h-373q25 246 68 408h-8q-63 -215 -173 -321.5t-245 -106.5q-139 0 -223 100t-84 299zM291 1391l366 249h185l321 -249l-180 -131l-252 196l-289 -196zM356 410 q0 -184 86 -185q70 0 147 98.5t132 250t63 292.5q-66 16 -104 17q-150 0 -237 -137t-87 -336z" />
<glyph unicode="&#xe3;" horiz-adv-x="1214" d="M74 379q0 334 176 523.5t440 189.5q145 0 291 -45h104q-23 -94 -32 -213l-52 -625h129l-18 -209h-373q25 246 68 408h-8q-63 -215 -173 -321.5t-245 -106.5q-139 0 -223 100t-84 299zM301 1329q98 231 270 232q76 0 172.5 -63.5t133.5 -63.5q61 0 118 102l154 -102 q-119 -197 -266 -197q-53 0 -164 63.5t-141 63.5q-61 0 -99 -104zM356 410q0 -184 86 -185q70 0 147 98.5t132 250t63 292.5q-66 16 -104 17q-150 0 -237 -137t-87 -336z" />
<glyph unicode="&#xe4;" horiz-adv-x="1214" d="M74 379q0 334 176 523.5t440 189.5q145 0 291 -45h104q-23 -94 -32 -213l-52 -625h129l-18 -209h-373q25 246 68 408h-8q-63 -215 -173 -321.5t-245 -106.5q-139 0 -223 100t-84 299zM315 1395q0 68 49.5 117t127.5 49q74 0 120.5 -44t46.5 -110q0 -70 -49 -118t-129 -48 q-74 0 -120 44t-46 110zM356 410q0 -184 86 -185q70 0 147 98.5t132 250t63 292.5q-66 16 -104 17q-150 0 -237 -137t-87 -336zM768 1395q0 68 48 117t128 49q74 0 121 -44t47 -110q0 -70 -49 -118t-129 -48q-74 0 -120 44t-46 110z" />
<glyph unicode="&#xe5;" horiz-adv-x="1214" d="M74 379q0 334 176 523.5t440 189.5q145 0 291 -45h104q-23 -94 -32 -213l-52 -625h129l-18 -209h-373q25 246 68 408h-8q-63 -215 -173 -321.5t-245 -106.5q-139 0 -223 100t-84 299zM356 410q0 -184 86 -185q70 0 147 98.5t132 250t63 292.5q-66 16 -104 17 q-150 0 -237 -137t-87 -336zM473 1397q0 109 71.5 172t174.5 63q90 0 149.5 -55t59.5 -154q0 -109 -72 -172t-174 -63q-90 0 -149.5 55.5t-59.5 153.5zM612 1401q0 -47 21.5 -72.5t56.5 -25.5q39 0 68.5 32.5t29.5 91.5q0 49 -21.5 76t-55.5 27q-39 0 -69 -33t-30 -96z" />
<glyph unicode="&#xe6;" horiz-adv-x="1630" d="M74 379q0 334 176 523.5t440 189.5q193 0 322 -109q104 109 282 109q133 0 218 -74t85 -184q0 -164 -153.5 -285t-437.5 -143q0 -106 48 -149.5t142 -43.5q150 0 328 82l-37 -246q-150 -70 -338 -69.5t-283.5 80t-97.5 286.5h-4q-115 -367 -383 -366q-139 0 -223 100 t-84 299zM356 410q0 -184 86 -185q70 0 147 98.5t132 250t63 292.5q-66 16 -104 17q-150 0 -237 -137t-87 -336zM1010 602q158 14 231.5 68.5t73.5 126.5q0 41 -26.5 63.5t-69.5 22.5q-193 0 -209 -281z" />
<glyph unicode="&#xe7;" horiz-adv-x="909" d="M49 471q0 303 161 462t406 159q154 0 285 -45l-24 -320h-222v143q-16 12 -53 13q-106 0 -188 -91.5t-82 -281.5q0 -147 69.5 -222t194.5 -75q121 0 250 70l-27 -234q-104 -57 -231 -69l-19 -140q195 -6 195 -170q0 -96 -87 -161.5t-243 -65.5q-113 0 -227 43l33 131 q127 -35 182 -35q133 0 133 74q0 41 -29.5 60.5t-119.5 21.5l30 244q-387 53 -387 489z" />
<glyph unicode="&#xe8;" horiz-adv-x="985" d="M49 432q0 303 155.5 481.5t424.5 178.5q170 0 255 -71t85 -187q0 -166 -161 -286t-476 -142q8 -193 235 -193q150 0 328 82l-37 -246q-150 -70 -338 -69q-471 -1 -471 452zM313 1511l174 129l392 -350l-164 -116zM332 582q354 47 354 215q0 86 -104 86q-113 0 -176.5 -85 t-73.5 -216z" />
<glyph unicode="&#xe9;" horiz-adv-x="985" d="M49 432q0 303 155.5 481.5t424.5 178.5q170 0 255 -71t85 -187q0 -166 -161 -286t-476 -142q8 -193 235 -193q150 0 328 82l-37 -246q-150 -70 -338 -69q-471 -1 -471 452zM297 1313l453 327l161 -129l-477 -337zM332 582q354 47 354 215q0 86 -104 86q-113 0 -176.5 -85 t-73.5 -216z" />
<glyph unicode="&#xea;" horiz-adv-x="985" d="M49 432q0 303 155.5 481.5t424.5 178.5q170 0 255 -71t85 -187q0 -166 -161 -286t-476 -142q8 -193 235 -193q150 0 328 82l-37 -246q-150 -70 -338 -69q-471 -1 -471 452zM176 1391l367 249h184l322 -249l-181 -131l-252 196l-288 -196zM332 582q354 47 354 215 q0 86 -104 86q-113 0 -176.5 -85t-73.5 -216z" />
<glyph unicode="&#xeb;" horiz-adv-x="985" d="M49 432q0 303 155.5 481.5t424.5 178.5q170 0 255 -71t85 -187q0 -166 -161 -286t-476 -142q8 -193 235 -193q150 0 328 82l-37 -246q-150 -70 -338 -69q-471 -1 -471 452zM231 1395q0 68 48.5 117t128.5 49q74 0 120.5 -44t46.5 -110q0 -70 -49 -118t-129 -48 q-74 0 -120 44t-46 110zM332 582q354 47 354 215q0 86 -104 86q-113 0 -176.5 -85t-73.5 -216zM684 1395q0 68 49 117t127 49q74 0 121 -44t47 -110q0 -70 -49 -118t-129 -48q-74 0 -120 44t-46 110z" />
<glyph unicode="&#xec;" d="M61 862l19 209h397l-71 -862h129l-19 -209h-397l71 862h-129zM82 1511l174 129l391 -350l-164 -116z" />
<glyph unicode="&#xed;" d="M61 862l19 209h397l-71 -862h129l-19 -209h-397l71 862h-129zM66 1313l452 327l162 -129l-477 -337z" />
<glyph unicode="&#xee;" d="M-76 1391l367 249h184l322 -249l-181 -131l-251 196l-289 -196zM61 862l19 209h397l-71 -862h129l-19 -209h-397l71 862h-129z" />
<glyph unicode="&#xef;" d="M-51 1395q0 68 48 117t128 49q74 0 121 -44t47 -110q0 -70 -49 -118t-129 -48q-74 0 -120 44t-46 110zM61 862l19 209h397l-71 -862h129l-19 -209h-397l71 862h-129zM401 1395q0 68 49.5 117t127.5 49q74 0 120.5 -44t46.5 -110q0 -70 -49 -118t-129 -48q-74 0 -120 44 t-46 110z" />
<glyph unicode="&#xf0;" horiz-adv-x="1099" d="M49 477q0 293 154.5 454t357.5 161q127 0 201 -80l4 4q-33 76 -99.5 161t-125.5 126l-209 -93l-115 105l184 80q-117 66 -208 75l172 164q152 -57 268 -137l215 96l98 -110l-186 -82q291 -274 291 -754q0 -188 -44 -322.5t-124 -207t-173.5 -105t-207.5 -32.5 q-195 0 -324 123.5t-129 373.5zM332 492q0 -279 188 -279q121 0 184.5 94t63.5 273q0 279 -188 278q-119 0 -183.5 -94t-64.5 -272z" />
<glyph unicode="&#xf1;" horiz-adv-x="1290" d="M68 862l18 209h397q-10 -209 -53 -383h8q137 403 451 404q250 0 250 -293q0 -119 -15 -228l-45 -362h123l-18 -209h-410l74 506q20 135 20 229q0 111 -61 111q-127 0 -252 -246q-70 -137 -101.5 -273.5t-54.5 -326.5h-270q33 193 45 381l33 481h-139zM272 1329 q98 231 271 232q76 0 172 -63.5t133 -63.5q61 0 119 102l153 -102q-119 -197 -266 -197q-53 0 -163.5 63.5t-141.5 63.5q-61 0 -98 -104z" />
<glyph unicode="&#xf2;" horiz-adv-x="1099" d="M49 477q0 299 152.5 457t398.5 158q195 0 323 -124t128 -374q0 -299 -153 -456.5t-396 -157.5q-195 0 -324 123.5t-129 373.5zM330 1511l174 129l391 -350l-164 -116zM332 492q0 -279 188 -279q121 0 184.5 94t63.5 273q0 279 -188 278q-119 0 -183.5 -94t-64.5 -272z " />
<glyph unicode="&#xf3;" horiz-adv-x="1099" d="M49 477q0 299 152.5 457t398.5 158q195 0 323 -124t128 -374q0 -299 -153 -456.5t-396 -157.5q-195 0 -324 123.5t-129 373.5zM332 492q0 -279 188 -279q121 0 184.5 94t63.5 273q0 279 -188 278q-119 0 -183.5 -94t-64.5 -272zM354 1313l453 327l162 -129l-477 -337z " />
<glyph unicode="&#xf4;" horiz-adv-x="1099" d="M49 477q0 299 152.5 457t398.5 158q195 0 323 -124t128 -374q0 -299 -153 -456.5t-396 -157.5q-195 0 -324 123.5t-129 373.5zM193 1391l366 249h184l322 -249l-180 -131l-252 196l-289 -196zM332 492q0 -279 188 -279q121 0 184.5 94t63.5 273q0 279 -188 278 q-119 0 -183.5 -94t-64.5 -272z" />
<glyph unicode="&#xf5;" horiz-adv-x="1099" d="M49 477q0 299 152.5 457t398.5 158q195 0 323 -124t128 -374q0 -299 -153 -456.5t-396 -157.5q-195 0 -324 123.5t-129 373.5zM203 1329q98 231 270 232q76 0 172 -63.5t133 -63.5q61 0 119 102l154 -102q-119 -197 -267 -197q-53 0 -163.5 63.5t-141.5 63.5 q-61 0 -98 -104zM332 492q0 -279 188 -279q121 0 184.5 94t63.5 273q0 279 -188 278q-119 0 -183.5 -94t-64.5 -272z" />
<glyph unicode="&#xf6;" horiz-adv-x="1099" d="M49 477q0 299 152.5 457t398.5 158q195 0 323 -124t128 -374q0 -299 -153 -456.5t-396 -157.5q-195 0 -324 123.5t-129 373.5zM197 1395q0 68 49 117t127 49q74 0 121 -44t47 -110q0 -70 -49.5 -118t-129.5 -48q-74 0 -119.5 44t-45.5 110zM332 492q0 -279 188 -279 q121 0 184.5 94t63.5 273q0 279 -188 278q-119 0 -183.5 -94t-64.5 -272zM649 1395q0 68 48 117t128 49q74 0 121 -44t47 -110q0 -70 -49 -118t-129 -48q-74 0 -120 44t-46 110z" />
<glyph unicode="&#xf7;" horiz-adv-x="1228" d="M96 408v221h1037v-221h-1037zM442 94.5q0 69.5 51.5 120.5t121 51t120.5 -51t51 -120.5t-51 -121t-120.5 -51.5t-121 51.5t-51.5 121zM442 942q0 70 51.5 121t121 51t120.5 -51t51 -121t-51 -121t-120.5 -51t-121 51t-51.5 121z" />
<glyph unicode="&#xf8;" horiz-adv-x="1099" d="M29 -94l139 209q-119 129 -119 362q0 299 152.5 457t398.5 158q104 0 191 -37l137 205l143 -97l-139 -209q119 -125 119 -360q0 -299 -153 -456.5t-396 -157.5q-106 0 -193 36l-137 -204zM332 492q0 -63 10 -115l311 469q-35 12 -73 12q-119 0 -183.5 -94t-64.5 -272z M449 225q35 -12 71 -12q121 0 184.5 94t63.5 273q0 57 -10 112z" />
<glyph unicode="&#xf9;" horiz-adv-x="1290" d="M88 862l18 209h426l-73 -512q-27 -199 -27 -246q0 -88 64 -88q111 0 226.5 225.5t172.5 620.5h270q-37 -182 -61 -471l-33 -391h131l-18 -209h-381q18 227 65 387h-6q-141 -408 -442 -407q-258 0 -258 301q0 43 24 284l31 297h-129zM424 1511l174 129l391 -350l-164 -116 z" />
<glyph unicode="&#xfa;" horiz-adv-x="1290" d="M88 862l18 209h426l-73 -512q-27 -199 -27 -246q0 -88 64 -88q111 0 226.5 225.5t172.5 620.5h270q-37 -182 -61 -471l-33 -391h131l-18 -209h-381q18 227 65 387h-6q-141 -408 -442 -407q-258 0 -258 301q0 43 24 284l31 297h-129zM408 1313l452 327l162 -129l-477 -337 z" />
<glyph unicode="&#xfb;" horiz-adv-x="1290" d="M88 862l18 209h426l-73 -512q-27 -199 -27 -246q0 -88 64 -88q111 0 226.5 225.5t172.5 620.5h270q-37 -182 -61 -471l-33 -391h131l-18 -209h-381q18 227 65 387h-6q-141 -408 -442 -407q-258 0 -258 301q0 43 24 284l31 297h-129zM287 1391l366 249h185l321 -249 l-180 -131l-252 196l-289 -196z" />
<glyph unicode="&#xfc;" horiz-adv-x="1290" d="M88 862l18 209h426l-73 -512q-27 -199 -27 -246q0 -88 64 -88q111 0 226.5 225.5t172.5 620.5h270q-37 -182 -61 -471l-33 -391h131l-18 -209h-381q18 227 65 387h-6q-141 -408 -442 -407q-258 0 -258 301q0 43 24 284l31 297h-129zM291 1395q0 68 49 117t127 49 q74 0 121 -44t47 -110q0 -70 -49 -118t-129 -48q-74 0 -120 44t-46 110zM743 1395q0 68 48.5 117t128.5 49q74 0 120.5 -44t46.5 -110q0 -70 -49 -118t-129 -48q-74 0 -120 44t-46 110z" />
<glyph unicode="&#xfd;" horiz-adv-x="1138" d="M-10 -514l16 221q70 -25 115 -24q158 0 248 176l73 141l-276 862h-131l20 209h367l149 -602q25 -96 31 -186h4q8 51 92 260l133 331h-172l21 197h410l-21 -209l-260 -604q-111 -258 -200 -419t-169 -242.5t-145.5 -108.5t-153.5 -27q-57 0 -151 25zM332 1313l452 327 l162 -129l-477 -337z" />
<glyph unicode="&#xfe;" horiz-adv-x="1214" d="M-25 -514l19 209h110l140 1671h-162l18 209h430l-43 -516q-16 -184 -61 -346h6q61 186 174 282.5t256 96.5q131 0 211 -101.5t80 -277.5q0 -315 -168 -524t-473 -209q-70 0 -115 10l-22 -295h131l-19 -209h-512zM412 225q61 -25 137 -24q137 0 229 146.5t92 332.5 q0 166 -79 166q-117 0 -231.5 -180.5t-147.5 -440.5z" />
<glyph unicode="&#xff;" horiz-adv-x="1138" d="M-10 -514l16 221q70 -25 115 -24q158 0 248 176l73 141l-276 862h-131l20 209h367l149 -602q25 -96 31 -186h4q8 51 92 260l133 331h-172l21 197h410l-21 -209l-260 -604q-111 -258 -200 -419t-169 -242.5t-145.5 -108.5t-153.5 -27q-57 0 -151 25zM215 1395q0 68 48 117 t128 49q74 0 121 -44t47 -110q0 -70 -49 -118t-129 -48q-74 0 -120 44t-46 110zM668 1395q0 68 49 117t127 49q74 0 121 -44t47 -110q0 -70 -49.5 -118t-128.5 -48q-74 0 -120 44t-46 110z" />
<glyph unicode="&#x152;" horiz-adv-x="2009" d="M53 643q0 209 81 385t243 287q104 72 228 101.5t306 29.5q104 0 203 -6q94 -6 189 -6h653l-25 -406h-221v197h-354l-31 -377h363l-19 -209h-362l-33 -430h371l26 197h234l-29 -406h-848q-70 0 -141.5 -6t-145.5 -6q-315 0 -501.5 168t-186.5 487zM360 664 q0 -227 116 -347t343 -120q96 0 172 16l82 1018q-61 6 -137 6q-268 0 -422 -148.5t-154 -424.5z" />
<glyph unicode="&#x153;" horiz-adv-x="1669" d="M49 477q0 299 150.5 457t382.5 158q131 0 224 -65.5t114 -180.5h4q104 246 397 246q164 0 248 -72t84 -186q0 -166 -161 -286t-476 -142q8 -193 235 -193q150 0 328 82l-37 -246q-145 -70 -344 -69q-143 0 -242.5 51t-121.5 164h-5q-29 -92 -129 -153.5t-231 -61.5 q-172 0 -296 125.5t-124 371.5zM332 492q0 -279 190 -279q121 0 184.5 94t63.5 273q0 279 -188 278q-121 0 -185.5 -94t-64.5 -272zM1016 582q354 47 354 215q0 86 -104 86q-113 0 -176.5 -85t-73.5 -216z" />
<glyph unicode="&#x178;" horiz-adv-x="1402" d="M27 1225l18 209h557l-18 -209h-119q41 -51 59 -84l207 -363l291 385q23 27 59 62h-168l19 209h532l-18 -209h-107l-501 -656l-29 -360h133l-18 -209h-533l19 209h116l29 338l-422 678h-106zM369 1686q0 68 49 116.5t127 48.5q74 0 121 -44t47 -109q0 -70 -49.5 -118 t-128.5 -48q-74 0 -120 44t-46 110zM821 1686q0 68 48.5 116.5t127.5 48.5q74 0 121 -44t47 -109q0 -70 -49 -118t-129 -48q-74 0 -120 44t-46 110z" />
<glyph unicode="&#x2c6;" horiz-adv-x="569" d="M-74 1391l367 249h184l322 -249l-181 -131l-251 196l-289 -196z" />
<glyph unicode="&#x2dc;" horiz-adv-x="569" d="M-63 1329q98 231 270 232q76 0 172 -63.5t133 -63.5q61 0 119 102l153 -102q-119 -197 -266 -197q-53 0 -163.5 63.5t-141.5 63.5q-61 0 -98 -104z" />
<glyph unicode="&#x2013;" horiz-adv-x="1024" d="M-8 500l16 221h1024l-16 -221h-1024z" />
<glyph unicode="&#x2014;" horiz-adv-x="2048" d="M-8 500l16 221h2048l-16 -221h-2048z" />
<glyph unicode="&#x2018;" d="M111 1081q0 334 417 525l90 -164q-213 -100 -212 -223q0 -45 45 -118t45 -122q0 -72 -50.5 -118t-121.5 -46q-90 0 -151.5 68.5t-61.5 197.5z" />
<glyph unicode="&#x2019;" d="M70 979q213 100 213 223q0 45 -45 118t-45 122q0 72 50 118t122 46q90 0 151.5 -69t61.5 -198q0 -334 -418 -524z" />
<glyph unicode="&#x201a;" d="M-39 -299q213 100 213 223q0 45 -45 118t-45 122q0 72 50 118t122 46q90 0 151.5 -69t61.5 -198q0 -334 -418 -524z" />
<glyph unicode="&#x201c;" horiz-adv-x="1099" d="M141 1081q0 334 418 525l90 -164q-213 -100 -213 -223q0 -45 45 -118t45 -122q0 -72 -50 -118t-122 -46q-90 0 -151.5 68.5t-61.5 197.5zM635 1081q0 334 418 525l90 -164q-213 -100 -213 -223q0 -45 45 -118t45 -122q0 -72 -50 -118t-122 -46q-90 0 -151.5 68.5 t-61.5 197.5z" />
<glyph unicode="&#x201d;" horiz-adv-x="1099" d="M49 979q213 100 213 223q0 45 -45 118t-45 122q0 72 50 118t122 46q90 0 151.5 -69t61.5 -198q0 -334 -418 -524zM543 979q213 100 213 223q0 45 -45 118t-45 122q0 72 50 118t122 46q90 0 151.5 -69t61.5 -198q0 -334 -418 -524z" />
<glyph unicode="&#x201e;" horiz-adv-x="1099" d="M-43 -299q213 100 213 223q0 45 -45 118t-45 122q0 72 50 118t122 46q90 0 151.5 -69t61.5 -198q0 -334 -418 -524zM451 -299q213 100 213 223q0 45 -45.5 118t-45.5 122q0 72 50.5 118t121.5 46q90 0 151.5 -69t61.5 -198q0 -334 -417 -524z" />
<glyph unicode="&#x2022;" horiz-adv-x="1024" d="M154 716.5q0 149.5 104 254t254 104.5t254 -104.5t104 -254t-104 -254t-254 -104.5t-254 104.5t-104 254z" />
<glyph unicode="&#x2026;" horiz-adv-x="2048" d="M160 135q0 84 51 130t137 46q82 0 129 -42t47 -115q0 -84 -51 -129t-139 -45q-80 0 -127 40.5t-47 114.5zM842 135q0 84 51 130t137 46q82 0 129 -42t47 -115q0 -84 -51 -129t-139 -45q-80 0 -127 40.5t-47 114.5zM1524 135q0 84 51 130t137 46q82 0 129 -42t47 -115 q0 -84 -51 -129t-139 -45q-80 0 -127 40.5t-47 114.5z" />
<glyph unicode="&#x2039;" d="M68 528l16 183l324 303l155 -158l-260 -246l211 -256l-180 -147z" />
<glyph unicode="&#x203a;" d="M43 365l260 245l-211 256l180 148l267 -322l-17 -182l-323 -303z" />
<glyph unicode="&#x20ac;" horiz-adv-x="1212" d="M25 786l108 183h68q152 508 669 508q158 0 367 -60l-18 -330h-195v144q-68 20 -158 20q-281 0 -385 -282h647l-108 -183h-580q-8 -51 -8 -114h537l-109 -183h-409q41 -160 133 -225q88 -63 254 -63q133 0 336 57l-15 -233q-184 -57 -383 -58q-522 0 -608 522h-143 l108 183h23q4 80 8 114h-139z" />
<glyph unicode="&#x2122;" horiz-adv-x="2027" d="M37 1294v140h680v-140h-252v-712h-176v712h-252zM872 582v852h258l228 -607l227 607h258v-852h-176v675h-4l-248 -675h-115l-247 675h-4v-675h-177z" />
<glyph unicode="&#xe000;" horiz-adv-x="1070" d="M0 1070h1070v-1070h-1070v1070z" />
<glyph unicode="&#xfb01;" horiz-adv-x="1251" d="M-233 -514l20 215q66 -18 127 -18q86 0 132 37.5t76 149.5t46 333l49 659h-141l18 209h137q10 254 128 385t364 131q137 0 258 -33l-27 -198q-96 23 -168 22q-139 0 -207.5 -66.5t-76.5 -240.5h612l-72 -862h129l-18 -209h-397l71 862h-340l-55 -756q-14 -195 -51 -323.5 t-99.5 -197t-137 -96.5t-177.5 -28q-108 0 -200 25z" />
<glyph unicode="&#xfb02;" horiz-adv-x="1251" d="M-233 -514l20 215q66 -18 127 -18q86 0 132 37.5t76 149.5t46 333l49 659h-141l18 209h137q25 289 132.5 402.5t332.5 113.5q78 0 154 -6t151 -6h156l-115 -1366h129l-18 -209h-397l121 1354q-66 12 -136 12q-109 0 -170 -58.5t-69 -236.5h254l-19 -209h-250l-55 -756 q-14 -195 -51 -323.5t-99.5 -197t-137 -96.5t-177.5 -28q-108 0 -200 25z" />
<glyph unicode="&#xfb03;" horiz-adv-x="2048" d="M-233 -514l20 215q66 -18 127 -18q86 0 132 37.5t76 149.5t46 333l49 659h-141l18 209h137q14 276 130 396t333 120q129 0 219 -33l-24 -198q-68 23 -148 22q-109 0 -170 -60.5t-69 -246.5h223l-18 -209h-220l-55 -756q-14 -195 -51 -323.5t-99.5 -197t-137 -96.5 t-177.5 -28q-108 0 -200 25zM487 -514l21 215q66 -18 127 -18q86 0 132 37.5t75.5 149.5t46.5 333l49 659h-141l18 209h137q14 276 130 396t333 120q129 0 219 -33l-24 -198q-68 23 -148 22q-109 0 -170 -60.5t-69 -246.5h223l-19 -209h-219l-55 -756q-14 -195 -51 -323.5 t-99.5 -197t-137 -96.5t-177.5 -28q-109 0 -201 25zM1503 862l19 209h397l-72 -862h129l-18 -209h-397l71 862h-129zM1622 1432q0 80 54.5 127t135.5 47q78 0 126.5 -43t48.5 -115q0 -82 -52.5 -128t-136.5 -46q-80 0 -128 43t-48 115z" />
<glyph unicode="&#xfb04;" horiz-adv-x="2048" d="M-233 -514l20 215q66 -18 127 -18q86 0 132 37.5t76 149.5t46 333l49 659h-141l18 209h137q14 276 130 396t333 120q129 0 219 -33l-24 -198q-68 23 -148 22q-109 0 -170 -60.5t-69 -246.5h223l-18 -209h-220l-55 -756q-14 -195 -51 -323.5t-99.5 -197t-137 -96.5 t-177.5 -28q-108 0 -200 25zM487 -514l21 215q66 -18 127 -18q86 0 132 37.5t75.5 149.5t46.5 333l49 659h-141l18 209h137q14 276 130 396t333 120q129 0 219 -33l-24 -198q-68 23 -148 22q-109 0 -170 -60.5t-69 -246.5h223l-19 -209h-219l-55 -756q-14 -195 -51 -323.5 t-99.5 -197t-137 -96.5t-177.5 -28q-109 0 -201 25zM1513 1366l19 209h430l-115 -1366h129l-18 -209h-397l114 1366h-162z" />
</font>
</defs>
</svg>
